<svg xmlns="http://www.w3.org/2000/svg" width="36" height="36" viewBox="0 0 256 257" fill="none">
  <path fill="#61DAFB" d="M215.871 120.253C215.871 173.973 165.849 224 121.5 224C77.1514 224 27.1287 173.973 27.1287 120.253C27.1287 66.5331 77.1514 16.5062 121.5 16.5062C165.849 16.5062 215.871 66.5331 215.871 120.253Z"/>
  <path fill="#00D8FF" d="M121.5 24.5062C170.528 24.5062 215.871 69.8491 215.871 118.877C215.871 134.074 211.665 148.474 204.617 161.368L126.695 44.1918C124.833 40.9256 123.168 37.8711 121.5 34.9256L121.5 24.5062Z"/>
  <path fill="#00B4D8" d="M121.5 142.123C100.462 142.123 82.5736 124.235 82.5736 103.197C82.5736 82.1594 100.462 64.271 121.5 64.271C142.538 64.271 160.426 82.1594 160.426 103.197C160.426 124.235 142.538 142.123 121.5 142.123ZM121.5 124.123C135.563 124.123 146.574 113.112 146.574 99.0491C146.574 84.9859 135.563 73.9749 121.5 73.9749C107.438 73.9749 96.4263 84.9859 96.4263 99.0491C96.4263 113.112 107.438 124.123 121.5 124.123Z"/>
</svg>